<svg width="30" height="30" viewBox="0 0 30 30" fill="none" xmlns="http://www.w3.org/2000/svg">

    <g id="arrowRight">
        <path d="M5 15H25" stroke="#676CDB" stroke-width="2" stroke-linecap="round" stroke-linejoin="round"/>
        <path d="M16.25 6.25L25 15L16.25 23.75" stroke="#676CDB" stroke-width="2" stroke-linecap="round"
              stroke-linejoin="round"/>
    </g>

    <g id="chain">
        <path d="M10.2867 7.71333C9.60408 7.03103 8.67846 6.64774 7.71334 6.64774C6.74821 6.64774 5.82259 7.03103 5.14 7.71333L2.56584 10.2867C1.88324 10.9693 1.49976 11.8951 1.49976 12.8604C1.49976 13.8258 1.88324 14.7516 2.56584 15.4342C3.24844 16.1168 4.17424 16.5002 5.13959 16.5002C6.10493 16.5002 7.03074 16.1168 7.71334 15.4342L9 14.1475"
              stroke="#FCFCFC" stroke-width="1.66667" stroke-linecap="round" stroke-linejoin="round"/>
        <path d="M7.71338 10.2867C8.39597 10.969 9.32159 11.3523 10.2867 11.3523C11.2518 11.3523 12.1775 10.969 12.86 10.2867L15.4342 7.71334C16.1168 7.03074 16.5003 6.10493 16.5003 5.13959C16.5003 4.17424 16.1168 3.24844 15.4342 2.56584C14.7516 1.88324 13.8258 1.49976 12.8605 1.49976C11.8951 1.49976 10.9693 1.88324 10.2867 2.56584L9.00005 3.8525"
              stroke="#FCFCFC" stroke-width="1.66667" stroke-linecap="round" stroke-linejoin="round"/>
    </g>

    <!-- skills   -->
    <symbol id="js" viewBox="0 0 24 24">
        <g>
            <path d="M13 6C13 5.44772 13.4477 5 14 5H17C17.5523 5 18 5.44772 18 6C18 6.55228 17.5523 7 17 7H15.2C15.0895 7 15 7.08954 15 7.2V8.8C15 8.91046 15.0895 9 15.2 9H17C17.5523 9 18 9.44772 18 10V13C18 13.2652 17.8946 13.5196 17.7071 13.7071L14.7071 16.7071C14.3166 17.0976 13.6834 17.0976 13.2929 16.7071C12.9024 16.3166 12.9024 15.6834 13.2929 15.2929L15.9414 12.6444C15.9789 12.6069 16 12.556 16 12.5029V11.2C16 11.0895 15.9105 11 15.8 11H14C13.4477 11 13 10.5523 13 10V6Z"
                  fill="white" fill-opacity="0.5"/>
            <path d="M11 6C11 5.44772 10.5523 5 10 5C9.44771 5 9 5.44772 9 6V13.1029C9 13.2811 8.78457 13.3704 8.65858 13.2444L8.05858 12.6444C8.02107 12.6069 8 12.556 8 12.5029V12C8 11.4477 7.55228 11 7 11C6.44771 11 6 11.4477 6 12V13C6 13.2652 6.10536 13.5196 6.29289 13.7071L9.29289 16.7071C9.57889 16.9931 10.009 17.0787 10.3827 16.9239C10.7564 16.7691 11 16.4045 11 16V6Z"
                  fill="white" fill-opacity="0.5"/>
            <path fill-rule="evenodd" clip-rule="evenodd"
                  d="M1.33617 4.42426C1.07798 2.61696 2.48037 1 4.30602 1H19.694C21.5196 1 22.922 2.61696 22.6638 4.42426L21.0948 15.4074C20.9933 16.1178 20.6405 16.7683 20.1005 17.2409L13.9755 22.6002C12.8444 23.5899 11.1556 23.5899 10.0245 22.6002L3.89952 17.2409C3.35945 16.7683 3.00667 16.1178 2.90519 15.4074L1.33617 4.42426ZM4.30602 3C3.69747 3 3.23001 3.53899 3.31607 4.14142L4.88509 15.1245C4.91892 15.3613 5.03651 15.5782 5.21653 15.7357L11.3415 21.095C11.7185 21.4249 12.2815 21.4249 12.6585 21.095L18.7835 15.7357C18.9635 15.5782 19.0811 15.3613 19.1149 15.1245L20.6839 4.14142C20.77 3.53899 20.3025 3 19.694 3H4.30602Z"
                  fill="white" fill-opacity="0.5"/>
        </g>
    </symbol>
    <symbol id="redux" viewBox="0 -0.5 25 25">
        <g>
            <path fill="white" fill-opacity="0.5"
                  d="m17.54 16.745c.893-.089 1.585-.837 1.585-1.746 0-.036-.001-.072-.003-.108v.005c-.047-.963-.834-1.726-1.801-1.736h-.065c-.968.036-1.739.829-1.739 1.802 0 .022 0 .044.001.067v-.003c.026.473.22.897.522 1.217l-.001-.001c-1.187 2.214-3.001 3.96-5.204 5.031l-.069.03c-1.192.66-2.614 1.048-4.127 1.048-.383 0-.761-.025-1.13-.073l.044.005c-1.361-.131-2.533-.844-3.277-1.884l-.009-.014c-.537-.755-.858-1.695-.858-2.711 0-.837.218-1.623.601-2.305l-.012.024c.547-1.036 1.293-1.898 2.194-2.562l.021-.014c-.171-.453-.324-.999-.432-1.56l-.011-.066c-4.683 3.349-4.208 7.93-2.786 10.095 1.243 1.586 3.159 2.596 5.311 2.596.098 0 .195-.002.292-.006h-.014c.035.001.077.001.119.001.647 0 1.276-.075 1.88-.216l-.056.011c4.008-.734 7.29-3.317 8.974-6.814l.032-.074z"/>
            <path fill="white" fill-opacity="0.5"
                  d="m23.18 12.799c-2.403-2.74-5.91-4.46-9.82-4.46-.119 0-.239.002-.357.005h.018-.538c-.283-.567-.86-.95-1.526-.95-.02 0-.039 0-.059.001h.003-.039c-.966.014-1.744.8-1.744 1.768 0 .029.001.057.002.085v-.004c.045.963.832 1.728 1.8 1.738h.079c.714-.028 1.317-.472 1.577-1.094l.004-.012h.585c2.554.003 4.924.787 6.884 2.128l-.042-.027c1.531.98 2.713 2.388 3.392 4.055l.021.058c.26.542.411 1.178.411 1.849 0 .71-.169 1.38-.47 1.972l.011-.025c-.777 1.586-2.379 2.658-4.231 2.658-.068 0-.135-.001-.202-.004h.01c-1.137-.024-2.21-.274-3.183-.707l.052.021c-.379.316-1.011.836-1.47 1.153 1.214.596 2.638.959 4.143.994h.012c.059.002.128.003.197.003 2.552 0 4.787-1.355 6.026-3.384l.018-.031c.342-.811.54-1.753.54-2.742 0-1.98-.796-3.774-2.085-5.079l.001.001-.015.032z"/>
            <path fill="white" fill-opacity="0.5"
                  d="m6.844 17.316c.044.964.833 1.731 1.803 1.738h.064c.968-.033 1.741-.827 1.741-1.8 0-.99-.799-1.794-1.788-1.801h-.067c-.01-.001-.022-.001-.033-.001-.073 0-.143.011-.209.033l.005-.001c-1.07-1.741-1.703-3.85-1.703-6.107 0-.364.016-.724.049-1.079l-.003.046c.091-1.906.791-3.633 1.907-5.007l-.012.016c.991-1.071 2.387-1.753 3.944-1.803h.009c3.412-.064 4.835 4.188 4.945 5.878l1.582.473c-.368-5.181-3.59-7.901-6.671-7.901-3.132.163-5.731 2.27-6.622 5.131l-.014.052c-.438 1.262-.692 2.716-.692 4.229 0 2.588.741 5.003 2.021 7.044l-.032-.055c-.143.216-.228.481-.228.766 0 .053.003.105.009.156l-.001-.006z"/>
        </g>
    </symbol>
    <symbol id="next" viewBox="0 0 24 24">
        <g>
            <path fill="white" fill-opacity="0.5" d="M17.813 22.502c-.089.047-.084.066.005.021a.228.228 0 0 0 .07-.047c0-.016-.002-.014-.075.026zm.178-.094c-.042.033-.042.035.009.009.028-.014.052-.03.052-.035 0-.019-.012-.014-.061.026zm.117-.071c-.042.033-.042.035.009.009.028-.014.052-.03.052-.035 0-.019-.012-.014-.061.026zm.117-.07c-.042.033-.042.035.009.009.028-.014.052-.03.052-.035 0-.019-.012-.014-.061.026zm.162-.105c-.082.052-.108.087-.035.047.052-.03.136-.094.122-.096a.466.466 0 0 0-.087.049zM11.214.006c-.052.005-.216.021-.364.033-3.408.307-6.601 2.146-8.623 4.973a11.876 11.876 0 0 0-2.118 5.243c-.096.659-.108.854-.108 1.748s.012 1.088.108 1.748c.652 4.506 3.859 8.292 8.208 9.695.779.251 1.6.422 2.533.525.364.04 1.935.04 2.299 0 1.611-.178 2.977-.577 4.323-1.264.206-.106.246-.134.218-.157a231.73 231.73 0 0 1-1.954-2.62l-1.919-2.592-2.404-3.558a332.01 332.01 0 0 0-2.421-3.556c-.009-.002-.019 1.579-.023 3.509-.007 3.38-.009 3.516-.052 3.596a.424.424 0 0 1-.206.213c-.075.038-.141.045-.495.045H7.81l-.108-.068a.442.442 0 0 1-.157-.171l-.049-.106.005-4.703.007-4.705.073-.091a.637.637 0 0 1 .174-.143c.096-.047.134-.052.54-.052.479 0 .558.019.683.155a466.83 466.83 0 0 1 2.895 4.361c1.558 2.362 3.687 5.587 4.734 7.171l1.9 2.878.096-.063a12.34 12.34 0 0 0 2.465-2.163 11.94 11.94 0 0 0 2.824-6.134c.096-.659.108-.854.108-1.748s-.012-1.088-.108-1.748c-.652-4.506-3.859-8.292-8.208-9.695a12.552 12.552 0 0 0-2.498-.523c-.225-.023-1.776-.049-1.97-.03zm4.912 7.258a.471.471 0 0 1 .237.277c.019.061.023 1.365.019 4.304l-.007 4.218-.744-1.14-.746-1.14v-3.066c0-1.982.009-3.096.023-3.15a.484.484 0 0 1 .232-.296c.096-.049.131-.054.5-.054.347 0 .408.005.486.047z"/>
        </g>
    </symbol>
    <symbol id="ts" viewBox="0 0 32 32">
        <g>
            <path fill="white" fill-opacity="0.5" d="M23.827,8.243A4.424,4.424,0,0,1,26.05,9.524a5.853,5.853,0,0,1,.852,1.143c.011.045-1.534,1.083-2.471,1.662-.034.023-.169-.124-.322-.35a2.014,2.014,0,0,0-1.67-1c-1.077-.074-1.771.49-1.766,1.433a1.3,1.3,0,0,0,.153.666c.237.49.677.784,2.059,1.383,2.544,1.095,3.636,1.817,4.31,2.843a5.158,5.158,0,0,1,.416,4.333,4.764,4.764,0,0,1-3.932,2.815,10.9,10.9,0,0,1-2.708-.028,6.531,6.531,0,0,1-3.616-1.884,6.278,6.278,0,0,1-.926-1.371,2.655,2.655,0,0,1,.327-.208c.158-.09.756-.434,1.32-.761L19.1,19.6l.214.312a4.771,4.771,0,0,0,1.35,1.292,3.3,3.3,0,0,0,3.458-.175,1.545,1.545,0,0,0,.2-1.974c-.276-.395-.84-.727-2.443-1.422a8.8,8.8,0,0,1-3.349-2.055,4.687,4.687,0,0,1-.976-1.777,7.116,7.116,0,0,1-.062-2.268,4.332,4.332,0,0,1,3.644-3.374A9,9,0,0,1,23.827,8.243ZM15.484,9.726l.011,1.454h-4.63V24.328H7.6V11.183H2.97V9.755A13.986,13.986,0,0,1,3.01,8.289c.017-.023,2.832-.034,6.245-.028l6.211.017Z"/>
        </g>
    </symbol>

    <symbol id="styledCom" viewBox="0 0 24 24">
        <g>
            <path fill="white" fill-opacity="0.5" d="M16.214 6.762l-.075.391c-.116.741-.074.953.244 1.228l.307.254-.318 1.418c-.19.846-.423 1.555-.571 1.788-.127.201-.275.497-.307.656-.053.19-.233.381-.508.55-.243.138-.72.508-1.058.805-.27.243-.456.392-.557.456l-.33.261c-.106.17-.166.307-.189.411-.023.107-.01.178.024.23.033.05.09.085.168.107a.954.954 0 00.282.023 3 3 0 00.632-.112c.07-.019.125-.037.173-.053.074-.091.245-.263.548-.562.804-.793 1.111-1.227.794-1.11-.117.042-.064-.064.137-.276.424-.413.667-1.037 1.175-2.994.402-1.545.402-1.567.698-1.567.139 0 .532.024.532.024V6.762h-.902zm3.839 3.165c-.064 0-.17.096-.233.202-.116.19.021.306 1.767 1.396 1.037.657 1.873 1.217 1.852 1.26-.021.031-.868.582-1.883 1.217-1.842 1.142-1.852 1.153-1.683 1.386.212.275 0 .37 2.391-1.122L24 13.155v-.836l-1.937-1.196c-1.047-.656-1.957-1.185-2.01-1.196zm-16.085.117c-.053 0-.963.54-2.01 1.185L0 12.425v.836l1.947 1.217c1.08.666 1.99 1.217 2.032 1.217.042 0 .127-.096.212-.212.127-.201.02-.286-1.768-1.418C.72 12.996.54 12.848.71 12.732c.106-.074.91-.572 1.778-1.111 1.979-1.217 1.873-1.133 1.714-1.387-.063-.105-.17-.2-.233-.19zm8.684.023c-.292-.002-.92.443-2.8 1.978-.081.193-.088.326-.051.412.024.059.068.1.129.13.06.03.138.048.224.055.171.015.373-.012.536-.044l.11-.025a.386.386 0 01.144-.118c.116-.064.603-.508 1.09-.984.857-.868 1.058-1.26.709-1.387a.24.24 0 00-.09-.017zm2.196.603c-.257.007-.72.305-1.513.938-.398.323-.65.497-.785.533l-.524.414c-.197.36-.226.583-.174.706a.25.25 0 00.138.134.644.644 0 00.24.045 2.18 2.18 0 00.58-.085 3.466 3.466 0 00.291-.092l.029-.012.053-.028c.1-.129.33-.372.618-.652.91-.878 1.375-1.502 1.28-1.735-.043-.113-.117-.17-.233-.166zm-2.424 1.08c-.074.008-.24.136-.539.398-.432.382-.903.602-1.066.504a3.97 3.97 0 01-.114.024c-.166.033-.373.06-.558.045a.708.708 0 01-.252-.063.337.337 0 01-.168-.17c-.037-.09-.037-.202.005-.345l-.65.534-1.471 1.217V15.867l4.82-3.797a.41.41 0 01.016-.123c.037-.134.035-.202-.023-.196zm2.074.639c-.073 0-.195.103-.39.31-.265.283-.682.557-.903.613l-.034.018a2.191 2.191 0 01-.11.042c-.06.02-.138.044-.228.068-.18.049-.404.094-.604.089a.732.732 0 01-.275-.054.344.344 0 01-.184-.18c-.058-.139-.035-.334.092-.611L7.61 16.033v1.205h1.868l3.962-3.112c.103-.114.258-.27.467-.465.56-.519.687-.698.687-.963 0-.206-.023-.31-.096-.31zm.943 1.95l-.339.338c-.19.18-.529.402-.761.497l-.046.02-.003.005-.01.01c-.009.007-.013.008-.02.011a3.432 3.432 0 01-.282.093 3.058 3.058 0 01-.65.115 1.035 1.035 0 01-.31-.027.364.364 0 01-.218-.144c-.048-.074-.062-.173-.035-.295a1.11 1.11 0 01.095-.25l-3.197 2.526h4.252l.508-.582c.698-.814 1.016-1.396 1.016-1.894z"/>
        </g>
    </symbol>

    <symbol id="jest" viewBox="0 0 32 32">
        <g>
            <path fill="white" fill-opacity="0.5" d="M27.089,15.786a2.606,2.606,0,0,0-2.606-2.606c-.093,0-.184.005-.274.014l3.58-10.557H12.577l3.574,10.548c-.052,0-.105-.005-.158-.005a2.607,2.607,0,0,0-.792,5.09,11.375,11.375,0,0,1-2.049,2.579A10.443,10.443,0,0,1,9.5,23.116a3.324,3.324,0,0,1-1.665-4.23c.077-.18.155-.362.23-.544a2.608,2.608,0,1,0-2.09-.4,20.08,20.08,0,0,0-1.889,4.788c-.354,2.135,0,4.4,1.845,5.681,4.3,2.981,8.969-1.848,13.891-3.061,1.784-.44,3.742-.369,5.313-1.28a4.443,4.443,0,0,0,2.179-3.088,4.639,4.639,0,0,0-.831-3.521,2.6,2.6,0,0,0,.606-1.671ZM18.6,15.8v-.009a2.605,2.605,0,0,0-1.256-2.23L20.188,7.8l2.85,5.814a2.6,2.6,0,0,0-1.161,2.169c0,.019,0,.038,0,.057L18.6,15.8Z"/>
            <path fill="white" fill-opacity="0.5" d="M27.726,15.786A3.248,3.248,0,0,0,25.083,12.6L28.677,2H11.689l3.6,10.621a3.242,3.242,0,0,0-1.005,5.919,10.852,10.852,0,0,1-1.568,1.846,9.836,9.836,0,0,1-3.16,2.03,2.657,2.657,0,0,1-1.134-3.281l.04-.093.074-.175a3.244,3.244,0,1,0-3.34-.754c-.108.231-.222.465-.339.706a14.022,14.022,0,0,0-1.4,3.8c-.465,2.8.285,5.043,2.111,6.308A5.751,5.751,0,0,0,8.934,30c2.132,0,4.289-1.071,6.4-2.119a23.638,23.638,0,0,1,4.642-1.917,18.262,18.262,0,0,1,1.8-.319,9.969,9.969,0,0,0,3.679-1.028,5.088,5.088,0,0,0,2.487-3.53,5.255,5.255,0,0,0-.69-3.613,3.225,3.225,0,0,0,.475-1.688Zm-1.273,0a1.97,1.97,0,1,1-1.97-1.97,1.973,1.973,0,0,1,1.97,1.97ZM26.9,3.273l-3.174,9.36a3.283,3.283,0,0,0-.4.125l-3.135-6.4L17.046,12.72a3.276,3.276,0,0,0-.419-.114L13.464,3.273ZM15.993,13.816a1.97,1.97,0,1,1-1.97,1.97,1.972,1.972,0,0,1,1.97-1.97Zm-8.523.019A1.97,1.97,0,1,1,5.5,15.805a1.972,1.972,0,0,1,1.969-1.97Zm19.217,7.034a3.818,3.818,0,0,1-1.871,2.646,8.88,8.88,0,0,1-3.223.87c-.632.091-1.285.185-1.924.343a24.609,24.609,0,0,0-4.9,2.013c-3.164,1.571-5.9,2.928-8.472,1.143-1.887-1.308-1.8-3.728-1.58-5.054A12.775,12.775,0,0,1,6,19.376c.092-.19.182-.375.27-.559a3.25,3.25,0,0,0,.838.21,3.963,3.963,0,0,0,2.1,4.655l.245.126.259-.093a11.022,11.022,0,0,0,3.876-2.4,12.11,12.11,0,0,0,1.918-2.32,3.241,3.241,0,0,0,2.64-5.627l2.038-4.121,2.059,4.2a3.24,3.24,0,0,0,4.088,5,3.952,3.952,0,0,1,.355,2.421Z"/>
        </g>
    </symbol>

    <g id="code">
        <path fill-rule="evenodd" clip-rule="evenodd"
              d="M18.3125 42.0645L27.2623 6.6875L31.4375 7.87241L22.4878 43.3125L18.3125 42.0645Z" fill="#7572D5"/>
        <path fill-rule="evenodd" clip-rule="evenodd"
              d="M13.5025 12.6875L16.5625 15.9278L7.99501 25.0001L16.5625 34.0721L13.5025 37.3125L1.875 25.0001L13.5025 12.6875Z"
              fill="#7572D5"/>
        <path fill-rule="evenodd" clip-rule="evenodd"
              d="M36.4976 12.6875L33.4375 15.9278L42.0051 25.0001L33.4375 34.0721L36.4976 37.3125L48.125 25.0001L36.4976 12.6875Z"
              fill="#7572D5"/>
    </g>

    <g id="css">
        <path d="M17.4667 13.0957H82.5292L76.6125 79.904L49.9292 87.454L23.3917 79.8999L17.4667 13.0957ZM70.4167 26.7665L29.5833 26.7582L30.2417 34.879L61.6125 34.8874L60.825 43.304H40.25L40.9958 51.2749H60.15L59.0167 62.1915L50 64.6832L40.8458 62.1707L40.2583 55.6332H32.175L33.075 67.579L50 72.8499L66.6458 68.1124L70.4167 26.7665Z"
              fill="white" fill-opacity="0.5"/>
    </g>

    <g id="css3">
        <path d="M38.0508 10.8437L12.946 10.8377L13.3515 15.7547L32.6381 15.7577L32.1519 20.8502H19.5035L19.9608 25.6742H31.7358L31.0392 32.2806L25.4969 33.7886L19.8663 32.2701L19.508 28.3134H14.5359L15.0877 35.5411L25.4969 38.7341L35.7309 35.8652L38.0493 10.8452L38.0508 10.8437ZM5.49844 2.56873H45.4984L41.86 42.9999L25.4542 47.5687L9.13993 42.9968L5.49844 2.56873Z"
              fill="#7572D5"/>
    </g>

    <g id="figma">
        <path d="M63.8833 36.1167C67.4928 36.0084 70.9181 34.4984 73.4329 31.907C75.9477 29.3156 77.3542 25.8466 77.3542 22.2355C77.3542 18.6244 75.9477 15.1554 73.4329 12.564C70.9181 9.97255 67.4928 8.46257 63.8833 8.35425H36.1167C32.5072 8.46257 29.0819 9.97255 26.5671 12.564C24.0523 15.1554 22.6458 18.6244 22.6458 22.2355C22.6458 25.8466 24.0523 29.3156 26.5671 31.907C29.0819 34.4984 32.5072 36.0084 36.1167 36.1167C32.4757 36.1798 29.0051 37.6705 26.4526 40.2676C23.9 42.8648 22.4697 46.3606 22.4697 50.0022C22.4697 53.6437 23.9 57.1395 26.4526 59.7367C29.0051 62.3339 32.4757 63.8245 36.1167 63.8876C32.4935 63.9764 29.0485 65.478 26.5173 68.072C23.9862 70.6659 22.5693 74.1466 22.5693 77.7709C22.5693 81.3952 23.9862 84.8759 26.5173 87.4698C29.0485 90.0638 32.4935 91.5655 36.1167 91.6543C39.7988 91.652 43.3294 90.188 45.9327 87.584C48.536 84.9799 49.9989 81.4489 50 77.7667V36.1167H63.8833Z"
              fill="white" fill-opacity="0.5"/>
        <path d="M63.8833 63.8834C71.5509 63.8834 77.7667 57.6676 77.7667 50C77.7667 42.3325 71.5509 36.1167 63.8833 36.1167C56.2158 36.1167 50 42.3325 50 50C50 57.6676 56.2158 63.8834 63.8833 63.8834Z"
              fill="white" fill-opacity="0.5"/>
    </g>

    <g id="figmaColorful">
        <path d="M17.7083 4.16663C14.2565 4.16663 11.4583 6.96486 11.4583 10.4166C11.4583 13.8684 14.2565 16.6666 17.7083 16.6666H32.2916C35.7435 16.6666 38.5416 13.8684 38.5416 10.4166C38.5416 6.96486 35.7435 4.16663 32.2916 4.16663H17.7083Z"
              fill="#7572D5"/>
        <path d="M32.2917 18.75C28.8398 18.75 26.0417 21.5481 26.0417 25C26.0417 28.4519 28.8398 31.25 32.2917 31.25C35.7436 31.25 38.5417 28.4519 38.5417 25C38.5417 21.5481 35.7436 18.75 32.2917 18.75Z"
              fill="#7572D5"/>
        <path d="M11.4583 25C11.4583 21.5481 14.2565 18.75 17.7083 18.75H23.9583V31.25H17.7083C14.2565 31.25 11.4583 28.4519 11.4583 25Z"
              fill="#7572D5"/>
        <path d="M17.7083 33.3334C14.2565 33.3334 11.4583 36.1315 11.4583 39.5834C11.4583 43.0352 14.2565 45.8334 17.7083 45.8334C21.1602 45.8334 23.9583 43.0352 23.9583 39.5834V33.3334H17.7083Z"
              fill="#7572D5"/>
    </g>

    <g id="react">
        <path d="M100 44.7043C100 38.0793 91.7042 31.8001 78.9833 27.9084C81.9208 14.9459 80.6167 4.62925 74.8667 1.32508C73.4734 0.54475 71.8965 0.151965 70.3 0.187581V4.72925C71.2375 4.72925 71.9917 4.91675 72.625 5.26258C75.3958 6.85425 76.6 12.9043 75.6625 20.6917C75.4375 22.6084 75.0708 24.6251 74.6208 26.6834C70.361 25.6569 66.0375 24.915 61.6792 24.4626C59.0827 20.8805 56.25 17.4757 53.2 14.2709C59.8458 8.09592 66.0833 4.71258 70.325 4.71258V0.166748C64.7167 0.166748 57.3792 4.16258 49.9583 11.0917C42.5417 4.20842 35.2 0.250081 29.5958 0.250081V4.79175C33.8167 4.79175 40.075 8.15841 46.7208 14.2917C43.8667 17.2917 41.0125 20.6917 38.3 24.4626C33.9326 24.91 29.6015 25.659 25.3375 26.7043C24.8667 24.6667 24.5208 22.6918 24.275 20.7959C23.3167 13.0042 24.5 6.95425 27.2542 5.34592C27.8625 4.97925 28.6583 4.81258 29.5958 4.81258V0.270915C27.8875 0.270915 26.3333 0.637581 24.9917 1.40841C19.2625 4.71258 17.9792 15.0042 20.9333 27.9293C8.25417 31.8459 0 38.1001 0 44.7043C0 51.3293 8.29583 57.6084 21.0167 61.4959C18.0792 74.4626 19.3833 84.7793 25.1333 88.0793C26.4583 88.8543 28.0083 89.2209 29.7167 89.2209C35.325 89.2209 42.6625 85.2251 50.0833 78.2959C57.5 85.1834 64.8375 89.1376 70.4458 89.1376C72.0546 89.1716 73.6435 88.7776 75.05 87.9959C80.7792 84.6959 82.0625 74.4043 79.1083 61.4793C91.7458 57.5876 100 51.3084 100 44.7043ZM73.4583 31.1084C72.6666 33.8328 71.7489 36.519 70.7083 39.1584C69.0048 35.8449 67.1344 32.6199 65.1042 29.4959C68 29.9251 70.7917 30.4542 73.4625 31.1084H73.4583ZM64.125 52.8167C62.5375 55.5667 60.9042 58.1793 59.2125 60.6043C53.0969 61.1433 46.946 61.1502 40.8292 60.6251C37.3206 55.6133 34.2522 50.3074 31.6583 44.7668C34.2483 39.213 37.3036 33.8885 40.7917 28.8501C46.9058 28.31 53.0553 28.3016 59.1708 28.8251C60.8625 31.2501 62.5167 33.8418 64.1042 36.5751C65.6542 39.2417 67.0625 41.9501 68.3458 44.6834C67.0483 47.4499 65.6402 50.1632 64.125 52.8167ZM70.7083 50.1668C71.8083 52.8959 72.75 55.6292 73.5208 58.2793C70.8542 58.9334 68.0375 59.4834 65.125 59.9084C67.1468 56.756 69.0103 53.5047 70.7083 50.1668ZM50.0417 71.9167C48.1458 69.9584 46.25 67.7793 44.375 65.3917C46.2083 65.4751 48.0833 65.5376 49.9792 65.5376C51.8958 65.5376 53.7917 65.4959 55.6458 65.3917C53.8125 67.7793 51.9167 69.9584 50.0417 71.9167ZM34.875 59.9084C32.0656 59.5014 29.2765 58.9647 26.5167 58.3001C27.2708 55.6709 28.2083 52.9584 29.2667 50.2501C30.1042 51.8751 30.9833 53.5084 31.9417 55.1418C32.9 56.7709 33.875 58.3626 34.875 59.9084ZM49.9375 17.4917C51.8333 19.4501 53.7292 21.6292 55.6042 24.0168C53.7708 23.9334 51.8958 23.8709 50 23.8709C48.0833 23.8709 46.1875 23.9126 44.3333 24.0168C46.1667 21.6292 48.0625 19.4501 49.9375 17.4917ZM34.8542 29.5001C32.8328 32.6456 30.9694 35.8899 29.2708 39.2209C28.2009 36.5645 27.2623 33.8571 26.4583 31.1084C29.125 30.4751 31.9417 29.9251 34.8542 29.5001ZM16.4083 55.0168C9.19167 51.9417 4.525 47.9043 4.525 44.7043C4.525 41.5043 9.19167 37.4459 16.4083 34.3918C18.1583 33.6376 20.075 32.9626 22.0542 32.3334C23.2167 36.3251 24.7458 40.4834 26.6375 44.7459C24.8515 48.755 23.3411 52.8813 22.1167 57.0959C20.181 56.4966 18.276 55.8027 16.4083 55.0168ZM27.375 84.1418C24.6042 82.5584 23.4 76.5001 24.3375 68.7168C24.5625 66.8001 24.9292 64.7793 25.3792 62.7209C29.3708 63.7001 33.7333 64.4543 38.3208 64.9459C40.9174 68.528 43.7501 71.9327 46.8 75.1376C40.1542 81.3126 33.9167 84.6959 29.675 84.6959C28.8748 84.7047 28.0847 84.5157 27.375 84.1459V84.1418ZM75.725 68.6126C76.6833 76.4001 75.5 82.4543 72.7458 84.0626C72.1375 84.4293 71.3417 84.5918 70.4042 84.5918C66.1833 84.5918 59.925 81.2293 53.2792 75.0918C56.1333 72.1001 58.9875 68.6959 61.7 64.9251C66.0674 64.4777 70.3985 63.7287 74.6625 62.6834C75.1333 64.7418 75.4958 66.7168 75.725 68.6126ZM83.5708 55.0168C81.8208 55.7709 79.9042 56.4459 77.925 57.0751C76.6791 52.8389 75.1478 48.6919 73.3417 44.6626C75.2167 40.4251 76.7208 36.2876 77.8625 32.3126C79.8833 32.9417 81.7958 33.6376 83.5917 34.3918C90.8083 37.4668 95.475 41.5043 95.475 44.7043C95.4542 47.9043 90.7875 51.9626 83.5708 55.0168Z"
              fill="white" fill-opacity="0.5"/>
        <path d="M49.9791 54.021C52.4501 54.021 54.8198 53.0394 56.567 51.2922C58.3142 49.545 59.2958 47.1753 59.2958 44.7044C59.2958 42.2334 58.3142 39.8637 56.567 38.1165C54.8198 36.3693 52.4501 35.3877 49.9791 35.3877C47.5082 35.3877 45.1385 36.3693 43.3913 38.1165C41.644 39.8637 40.6625 42.2334 40.6625 44.7044C40.6625 47.1753 41.644 49.545 43.3913 51.2922C45.1385 53.0394 47.5082 54.021 49.9791 54.021Z"
              fill="white" fill-opacity="0.5"/>
    </g>

    <g id="reactColorful">
        <g clip-path="url(#clip0_20_1854)">
            <path d="M47.8125 25C47.8125 22.0833 44.6875 19.375 39.4792 17.5L38.5417 17.1875V16.7708C39.6875 11.0416 38.8542 6.7708 36.25 5.2083C33.6458 3.6458 29.7917 5.10414 25.625 8.74997L25 9.37497L24.7917 9.16664H24.5833C20.3125 5.2083 16.1458 3.85414 13.5417 5.31247C10.9375 6.7708 10.2083 10.8333 11.25 16.1458C11.3596 16.4838 11.4295 16.8333 11.4583 17.1875L10.3125 17.6041C5.20833 19.375 2.1875 22.0833 2.1875 25C2.1875 27.9166 5.52083 30.8333 10.7292 32.7083L11.4583 32.9166C11.3296 33.2854 11.2593 33.672 11.25 34.0625C10.2083 39.2708 11.1458 43.2291 13.5417 44.6875C15.9375 46.1458 20.3125 44.7916 24.4792 41.1458L25.1042 40.625L25.9375 41.4583C28.8542 43.9583 31.7708 45.3125 34.0625 45.3125C34.8708 45.3309 35.6671 45.1137 36.3542 44.6875C38.9583 43.2291 39.8958 38.9583 38.75 33.5416V33.3333C38.705 33.1619 38.6702 32.988 38.6458 32.8125H38.9583C44.4792 30.8333 47.8125 28.0208 47.8125 25ZM44.7917 25C44.7917 26.25 42.5 28.4375 38.0208 29.8958H37.8125C37.2664 28.2202 36.6051 26.5843 35.8333 25C36.5625 23.3333 37.1875 21.6666 37.7083 20.1041L38.5417 20.3125C42.7083 21.7708 44.7917 23.75 44.7917 25ZM27.9167 39.1666L27.0833 38.5416C28.2761 37.2201 29.3891 35.8287 30.4167 34.375L35.7292 33.5416C35.8333 33.75 35.8333 33.9583 35.9375 34.0625C36.3087 35.9492 36.379 37.8829 36.1458 39.7916C35.9995 40.7045 35.5608 41.5452 34.8958 42.1875C33.8542 42.8125 31.0417 41.9791 27.9167 39.1666ZM26.5625 34.5833L25.1042 36.4583L23.4375 34.5833H26.5625ZM12.2917 20C12.8152 21.7174 13.4771 23.3895 14.2708 25C13.4765 26.646 12.8146 28.3528 12.2917 30.1041L11.6667 29.8958C9.84256 29.3201 8.1454 28.4008 6.66667 27.1875C6.28377 26.9455 5.95605 26.6257 5.7048 26.2488C5.45356 25.872 5.2844 25.4465 5.20833 25C5.20833 23.75 7.29167 21.7708 11.25 20.4166L12.2917 20ZM23.4375 15.4166L25 13.6458L26.5625 15.4166H23.4375ZM34.8958 7.81247C36.0417 8.43747 36.6667 11.5625 35.7292 16.1458C35.734 16.2022 35.7272 16.2591 35.7093 16.3128C35.6914 16.3665 35.6627 16.416 35.625 16.4583L30.4167 15.625C29.3891 14.1712 28.2761 12.7799 27.0833 11.4583L27.7083 10.9375C31.0417 8.0208 33.75 7.18747 34.8958 7.81247ZM17.5 18.8541L16.6667 20.2083L15.9375 21.5625C15.625 20.8333 15.4167 20.1041 15.1042 19.2708L17.5 18.8541ZM15.1042 30.7291C15.4167 30 15.625 29.2708 15.9375 28.4375L16.6667 29.7916L17.5 31.1458L15.1042 30.7291ZM32.5 25C31.9699 26.142 31.3788 27.2548 30.7292 28.3333C30.1042 29.4791 29.375 30.5208 28.75 31.5625H21.25C20.5208 30.4166 19.7917 29.375 19.2708 28.3333C18.6161 27.2577 18.0248 26.1447 17.5 25C18.0054 23.8458 18.5974 22.7315 19.2708 21.6666C19.8693 20.5874 20.5301 19.544 21.25 18.5416C23.7457 18.3334 26.2543 18.3334 28.75 18.5416C29.4792 19.5833 30.1042 20.625 30.7292 21.6666C31.4026 22.7315 31.9946 23.8458 32.5 25ZM33.3333 20.2083L32.5 18.8541L34.8958 19.375C34.6639 20.1208 34.3856 20.8514 34.0625 21.5625L33.3333 20.2083ZM32.5 31.1458L33.3333 29.7916L34.0625 28.3333L35 30.7291L32.5 31.1458ZM22.8125 11.3541H22.9167L19.5833 15.5208L14.375 16.3541C14.2708 16.0416 14.2708 15.8333 14.1667 15.5208C13.3333 11.25 13.9583 8.3333 15 7.81247C15.2766 7.63082 15.61 7.55672 15.9375 7.60414C17.3958 7.60414 19.8958 8.6458 22.7083 11.1458L22.8125 11.3541ZM14.1667 34.5833C14.1857 34.2617 14.256 33.9452 14.375 33.6458L19.6875 34.375C20.689 35.8481 21.8034 37.2412 23.0208 38.5416L22.8125 38.75L22.6042 38.9583C21.184 40.2738 19.5211 41.2999 17.7083 41.9791C17.3107 42.1874 16.875 42.3133 16.4275 42.3491C15.98 42.3849 15.5299 42.3299 15.1042 42.1875C13.9583 41.5625 13.3333 38.75 14.1667 34.5833Z"
                  fill="#7572D5"/>
            <path d="M25 20.4166C24.0894 20.3959 23.1932 20.647 22.4259 21.1379C21.6586 21.6287 21.0549 22.3371 20.692 23.1726C20.3291 24.008 20.2233 24.9327 20.3882 25.8285C20.5532 26.7243 20.9812 27.5507 21.6179 28.2022C22.2545 28.8536 23.0709 29.3006 23.9627 29.4861C24.8545 29.6715 25.7813 29.587 26.6249 29.2434C27.4685 28.8998 28.1905 28.3126 28.6989 27.5568C29.2073 26.801 29.4789 25.9108 29.4792 24.9999C29.4795 23.8022 29.0109 22.6519 28.1738 21.7953C27.3366 20.9387 26.1974 20.4438 25 20.4166Z"
                  fill="#7572D5"/>
        </g>
        <defs>
            <clipPath id="clip0_20_1854">
                <rect width="50" height="50" fill="white"/>
            </clipPath>
        </defs>
    </g>

    <g id="sass">
        <path transform="translate(10 10)"
              d="M47.1624 57.2063C47.0687 57.3751 47.1156 57.3001 47.1624 57.2063V57.2063ZM86.0874 43.6126C82.9437 43.6126 79.8437 44.3313 77.0249 45.7219C76.1031 43.8626 75.1499 42.2376 74.9937 41.0188C74.8062 39.5969 74.6031 38.7532 74.8218 37.0657C75.0406 35.3782 76.0249 32.9876 76.0093 32.8157C75.9937 32.6438 75.7906 31.7844 73.7749 31.7688C71.7593 31.7532 70.0249 32.1594 69.8218 32.6907C69.4652 33.6613 69.1882 34.6594 68.9937 35.6751C68.6343 37.5032 64.9656 44.0344 62.8874 47.4407C62.1999 46.1126 61.6218 44.9407 61.4968 44.0032C61.3093 42.5813 61.1062 41.7376 61.3249 40.0501C61.5437 38.3626 62.5281 35.9719 62.5124 35.8001C62.4968 35.6282 62.2937 34.7688 60.2812 34.7532C58.2687 34.7376 56.5312 35.1438 56.3281 35.6751C56.1249 36.2063 55.9062 37.4563 55.4999 38.6594C55.0937 39.8626 50.2031 50.7376 48.9249 53.5657C48.2687 55.0032 47.7062 56.1594 47.2999 56.9407C47.2374 57.0657 47.1906 57.1438 47.1593 57.2063C47.2062 57.1282 47.2374 57.0501 47.2374 57.0813C46.8937 57.7532 46.6906 58.1282 46.6906 58.1282V58.1438C46.4249 58.6438 46.1281 59.0969 45.9874 59.0969C45.8937 59.0969 45.6906 57.7844 46.0343 55.9876C46.7687 52.2063 48.5031 46.3313 48.4874 46.1282C48.4718 46.0188 48.8156 45.0032 47.3468 44.4563C45.9249 43.9407 45.4093 44.8001 45.2843 44.8001C45.1593 44.8001 45.0656 45.1126 45.0656 45.1126C45.0656 45.1126 46.6437 38.4876 42.0343 38.4876C39.1593 38.4876 35.1593 41.6438 33.1937 44.5032C31.9593 45.1751 29.2874 46.6282 26.4749 48.1751L23.2406 49.9563C23.1624 49.8782 23.0999 49.8001 23.0218 49.7219C17.4281 43.7532 7.10307 39.5344 7.54057 31.5188C7.69682 28.5969 8.71244 20.9251 27.3968 11.6126C42.7093 3.98757 54.9499 6.08132 57.0593 10.7376C60.0906 17.3782 50.5124 29.7376 34.6124 31.5188C28.5499 32.1907 25.3656 29.8469 24.5687 28.9719C23.7406 28.0501 23.6156 28.0032 23.3031 28.1751C22.7874 28.4563 23.1156 29.2688 23.3031 29.7532C23.7718 30.9876 25.7249 33.1751 29.0531 34.2688C31.9749 35.2219 39.0812 35.7532 47.6718 32.4251C57.3249 28.7063 64.8406 18.3469 62.6343 9.67507C60.3906 0.862569 45.7781 -2.02806 31.9624 2.87819C23.7281 5.80007 14.8249 10.3938 8.42182 16.3782C0.81244 23.5032 -0.403185 29.7063 0.0968153 32.3001C1.87807 41.5032 14.5624 47.5032 19.6374 51.9407L18.9343 52.3313C16.3874 53.5969 6.71869 58.6594 4.29682 64.0032C1.56244 70.0657 4.74994 74.4094 6.84057 75.0032C13.3718 76.8157 20.0562 73.5501 23.6499 68.1907C27.2437 62.8313 26.8062 55.8313 25.1499 52.6438C25.1343 52.5969 25.1031 52.5657 25.0874 52.5188C26.9624 51.4083 28.8532 50.3248 30.7593 49.2688C30.1343 50.9563 29.6812 52.9876 29.4468 55.9251C29.1656 59.3626 30.5874 63.8157 32.4312 65.5657C33.2437 66.3313 34.2249 66.3469 34.8374 66.3469C36.9937 66.3469 37.9624 64.5657 39.0406 62.4407C40.3687 59.8469 41.5406 56.8313 41.5406 56.8313C41.5406 56.8313 40.0718 64.9876 44.0874 64.9876C45.5562 64.9876 47.0249 63.0969 47.6812 62.1282V62.1438C47.6812 62.1438 47.7124 62.0813 47.7906 61.9563C47.9468 61.7219 48.0249 61.5813 48.0249 61.5813V61.5344C48.6187 60.5188 49.9156 58.1907 51.8687 54.3469C54.3999 49.3782 56.8187 43.1751 56.8187 43.1751C57.0531 44.5376 57.3781 45.8844 57.7874 47.2063C58.2249 48.6907 59.1468 50.3157 59.8812 51.8938C59.2874 52.7063 58.9281 53.1751 58.9281 53.1751C58.9281 53.1876 58.9343 53.1969 58.9437 53.2063C58.4749 53.8313 57.9437 54.5032 57.3968 55.1594C55.3999 57.5344 53.0218 60.2532 52.7093 61.0344C52.3343 61.9563 52.4281 62.6438 53.1468 63.1751C53.6781 63.5813 54.6156 63.6438 55.5999 63.5657C57.3968 63.4407 58.6624 63.0032 59.2718 62.7219C60.3958 62.3192 61.4581 61.7618 62.4281 61.0657C64.3812 59.6282 65.5687 57.5657 65.4593 54.8469C65.3968 53.3469 64.9124 51.8469 64.3187 50.4407C64.4906 50.1907 64.6781 49.9251 64.8499 49.6594C66.8833 46.6255 68.7153 43.4614 70.3343 40.1876C70.5687 41.5501 70.8906 42.8969 71.3031 44.2188C71.6781 45.4844 72.4124 46.8751 73.0843 48.2344C70.1781 50.5938 68.3812 53.3282 67.7593 55.1251C66.6031 58.4532 67.5093 59.9532 69.2124 60.2969C69.9781 60.4532 71.0718 60.0938 71.8843 59.7501C73.0906 59.3469 74.2281 58.7626 75.2562 58.0157C77.2093 56.5782 79.0999 54.5626 78.9718 51.8282C78.9249 50.5938 78.5812 49.3594 78.1281 48.1719C80.5812 47.1407 83.7687 46.5782 87.8312 47.0469C96.5312 48.0626 98.2343 53.5001 97.9062 55.7657C97.5781 58.0313 95.7499 59.2969 95.1406 59.6719C94.5312 60.0469 94.3437 60.1876 94.3906 60.4688C94.4687 60.8751 94.7499 60.8594 95.2656 60.7657C95.9843 60.6407 99.8281 58.9219 100 54.7188C100.25 49.4063 95.1406 43.5626 86.0937 43.6094L86.0874 43.6126ZM19.0281 66.2219C16.1531 69.3626 12.1249 70.5501 10.3906 69.5501C8.53119 68.4688 9.26557 63.8469 12.8093 60.5001C14.9656 58.4688 17.7468 56.5938 19.5906 55.4376C20.0124 55.1876 20.6218 54.8126 21.3718 54.3594C21.4328 54.3204 21.4953 54.2839 21.5593 54.2501C21.6999 54.1563 21.8562 54.0782 22.0124 53.9844C23.3062 58.7344 22.0593 62.9219 19.0281 66.2188V66.2219ZM40.0218 51.9407C39.0218 54.3938 36.9156 60.6438 35.6312 60.3157C34.5374 60.0344 33.8656 55.2688 35.4124 50.5813C36.1937 48.2219 37.8499 45.4094 38.8343 44.3157C40.4124 42.5501 42.1468 41.9876 42.5531 42.6907C43.0999 43.6126 40.6468 50.4094 40.0218 51.9407ZM57.3656 60.2219C56.9437 60.4407 56.5531 60.5813 56.3656 60.4719C56.2249 60.3938 56.5374 60.0969 56.5374 60.0969C56.5374 60.0969 58.7093 57.7688 59.5687 56.7063C60.0687 56.0813 60.6468 55.3469 61.2718 54.5344C61.2718 54.6126 61.2874 54.6907 61.2874 54.7844C61.2687 57.5813 58.5812 59.4719 57.3624 60.2219H57.3656ZM70.7406 57.1751C70.4281 56.9563 70.4749 56.2219 71.5218 53.9407C71.9281 53.0501 72.8656 51.5501 74.4906 50.1126C74.6749 50.6563 74.7749 51.2251 74.7874 51.8001C74.7718 55.3157 72.2562 56.6282 70.7406 57.1751Z"
              fill="white" fill-opacity="0.5"/>
    </g>

    <g id="styledComponent">
        <path d="M37.2591 6.25L36.9888 7.64963C36.5708 10.3021 36.7221 11.061 37.8682 12.0454L38.9747 12.9546L37.8286 18.0305C37.1438 21.0588 36.3041 23.5968 35.7707 24.4308C35.313 25.1503 34.7796 26.2099 34.6642 26.7791C34.4732 27.4592 33.8245 28.1429 32.8334 28.7478C31.9576 29.2418 30.2385 30.5663 29.0203 31.6294C28.0472 32.4993 27.3769 33.0326 27.0129 33.2617L25.8235 34.196C25.4415 34.8046 25.2253 35.295 25.1424 35.6672C25.0595 36.0503 25.1063 36.3044 25.2289 36.4905C25.3478 36.6695 25.5532 36.7948 25.8343 36.8736C26.1671 36.951 26.5097 36.9788 26.8507 36.9559C27.6222 36.9035 28.3858 36.7691 29.1284 36.555C29.3807 36.487 29.5789 36.4225 29.7519 36.3653C30.0186 36.0395 30.6349 35.4238 31.7269 34.3535C34.6246 31.5149 35.731 29.9613 34.5885 30.3802C34.1669 30.5305 34.3579 30.1511 35.0823 29.3922C36.6104 27.9138 37.4862 25.6801 39.317 18.6748C40.7659 13.1443 40.7659 13.0656 41.8327 13.0656C42.3336 13.0656 43.75 13.1515 43.75 13.1515V6.25H40.4992H37.2591ZM24.4216 18.0806C23.3692 18.0735 21.1058 19.6664 14.3303 25.1611C14.0383 25.8519 14.0131 26.328 14.1464 26.6359C14.2329 26.8471 14.3915 26.9938 14.6114 27.1012C14.8276 27.2086 15.1087 27.2731 15.4187 27.2981C16.035 27.3518 16.763 27.2552 17.3504 27.1406L17.7469 27.0511C17.8826 26.8704 18.0608 26.7254 18.2659 26.6287C18.6839 26.3996 20.4391 24.8103 22.1943 23.1064C25.2829 19.9993 26.0073 18.5961 24.7495 18.1415C24.6463 18.1007 24.5326 18.08 24.4216 18.0806ZM32.336 20.2391C31.4098 20.2642 29.7411 21.3309 26.8831 23.5968C25.4487 24.753 24.5405 25.3759 24.0539 25.5047L22.1654 26.9867C21.4554 28.2753 21.3509 29.0736 21.5383 29.5139C21.5852 29.6225 21.6533 29.7208 21.7387 29.8031C21.8241 29.8855 21.925 29.9502 22.0357 29.9936C22.311 30.1015 22.6046 30.1562 22.9006 30.1546C23.608 30.1471 24.3112 30.0448 24.991 29.8504C25.3453 29.7559 25.6952 29.6461 26.0398 29.521L26.1443 29.4781L26.3353 29.3779C26.6957 28.9161 27.5246 28.0462 28.5626 27.044C31.8423 23.9011 33.5181 21.6674 33.1758 20.8333C33.0208 20.4288 32.7541 20.2248 32.336 20.2391ZM23.5998 24.1051C23.3331 24.1337 22.7349 24.5919 21.6573 25.5298C20.1003 26.8972 18.4028 27.6847 17.8154 27.3339C17.6788 27.3645 17.5419 27.3932 17.4045 27.4198C16.8062 27.5379 16.0602 27.6346 15.3934 27.5809C15.0793 27.562 14.7714 27.4855 14.4852 27.3554C14.2153 27.2328 13.9999 27.0164 13.8797 26.7468C13.7464 26.4247 13.7464 26.0238 13.8978 25.5119L11.5551 27.4234L6.2536 31.7798V38.8424L23.6251 25.2506C23.6217 25.1018 23.6411 24.9533 23.6827 24.8103C23.8161 24.3306 23.8089 24.0872 23.5998 24.1087V24.1051ZM31.0746 26.3925C30.8115 26.3925 30.3718 26.7612 29.669 27.5021C28.714 28.5152 27.2111 29.496 26.4146 29.6964L26.292 29.7609C26.1613 29.8145 26.0291 29.8646 25.8956 29.9112C25.6794 29.9828 25.3982 30.0687 25.0739 30.1546C24.4252 30.33 23.6179 30.4911 22.897 30.4732C22.5572 30.4728 22.2207 30.4072 21.9059 30.2799C21.6093 30.1585 21.3716 29.9275 21.2428 29.6356C21.0338 29.138 21.1167 28.44 21.5744 27.4485L6.25 39.4366V43.75H12.9823L27.2615 32.6103C27.6327 32.2022 28.1914 31.6438 28.9446 30.9457C30.9629 29.0879 31.4206 28.4472 31.4206 27.4986C31.4206 26.7612 31.3377 26.3889 31.0746 26.3889V26.3925ZM34.4732 33.3727L33.2514 34.5826C32.5667 35.2269 31.3449 36.0216 30.5088 36.3617L30.343 36.4333L30.3322 36.4512L30.2961 36.487C30.2637 36.512 30.2493 36.5156 30.2241 36.5263C29.8903 36.6518 29.5512 36.7629 29.2077 36.8592C28.4441 37.08 27.6586 37.218 26.8651 37.2709C26.4899 37.2948 26.1132 37.2622 25.7478 37.1743C25.4307 37.1049 25.1508 36.9213 24.9622 36.6588C24.7892 36.3939 24.7387 36.0395 24.836 35.6028C24.9134 35.2919 25.0284 34.9914 25.1784 34.7079L13.6563 43.75H28.9807L30.8115 41.6667C33.3271 38.7529 34.4732 36.6695 34.4732 34.8869V33.3727Z"
              fill="#7572D5"/>
    </g>

    <g id="sass">
        <path d="M47.1624 57.2063C47.0687 57.3751 47.1156 57.3001 47.1624 57.2063V57.2063ZM86.0874 43.6126C82.9437 43.6126 79.8437 44.3313 77.0249 45.7219C76.1031 43.8626 75.1499 42.2376 74.9937 41.0188C74.8062 39.5969 74.6031 38.7532 74.8218 37.0657C75.0406 35.3782 76.0249 32.9876 76.0093 32.8157C75.9937 32.6438 75.7906 31.7844 73.7749 31.7688C71.7593 31.7532 70.0249 32.1594 69.8218 32.6907C69.4652 33.6613 69.1882 34.6594 68.9937 35.6751C68.6343 37.5032 64.9656 44.0344 62.8874 47.4407C62.1999 46.1126 61.6218 44.9407 61.4968 44.0032C61.3093 42.5813 61.1062 41.7376 61.3249 40.0501C61.5437 38.3626 62.5281 35.9719 62.5124 35.8001C62.4968 35.6282 62.2937 34.7688 60.2812 34.7532C58.2687 34.7376 56.5312 35.1438 56.3281 35.6751C56.1249 36.2063 55.9062 37.4563 55.4999 38.6594C55.0937 39.8626 50.2031 50.7376 48.9249 53.5657C48.2687 55.0032 47.7062 56.1594 47.2999 56.9407C47.2374 57.0657 47.1906 57.1438 47.1593 57.2063C47.2062 57.1282 47.2374 57.0501 47.2374 57.0813C46.8937 57.7532 46.6906 58.1282 46.6906 58.1282V58.1438C46.4249 58.6438 46.1281 59.0969 45.9874 59.0969C45.8937 59.0969 45.6906 57.7844 46.0343 55.9876C46.7687 52.2063 48.5031 46.3313 48.4874 46.1282C48.4718 46.0188 48.8156 45.0032 47.3468 44.4563C45.9249 43.9407 45.4093 44.8001 45.2843 44.8001C45.1593 44.8001 45.0656 45.1126 45.0656 45.1126C45.0656 45.1126 46.6437 38.4876 42.0343 38.4876C39.1593 38.4876 35.1593 41.6438 33.1937 44.5032C31.9593 45.1751 29.2874 46.6282 26.4749 48.1751L23.2406 49.9563C23.1624 49.8782 23.0999 49.8001 23.0218 49.7219C17.4281 43.7532 7.10307 39.5344 7.54057 31.5188C7.69682 28.5969 8.71244 20.9251 27.3968 11.6126C42.7093 3.98757 54.9499 6.08132 57.0593 10.7376C60.0906 17.3782 50.5124 29.7376 34.6124 31.5188C28.5499 32.1907 25.3656 29.8469 24.5687 28.9719C23.7406 28.0501 23.6156 28.0032 23.3031 28.1751C22.7874 28.4563 23.1156 29.2688 23.3031 29.7532C23.7718 30.9876 25.7249 33.1751 29.0531 34.2688C31.9749 35.2219 39.0812 35.7532 47.6718 32.4251C57.3249 28.7063 64.8406 18.3469 62.6343 9.67507C60.3906 0.862569 45.7781 -2.02806 31.9624 2.87819C23.7281 5.80007 14.8249 10.3938 8.42182 16.3782C0.81244 23.5032 -0.403185 29.7063 0.0968153 32.3001C1.87807 41.5032 14.5624 47.5032 19.6374 51.9407L18.9343 52.3313C16.3874 53.5969 6.71869 58.6594 4.29682 64.0032C1.56244 70.0657 4.74994 74.4094 6.84057 75.0032C13.3718 76.8157 20.0562 73.5501 23.6499 68.1907C27.2437 62.8313 26.8062 55.8313 25.1499 52.6438C25.1343 52.5969 25.1031 52.5657 25.0874 52.5188C26.9624 51.4083 28.8532 50.3248 30.7593 49.2688C30.1343 50.9563 29.6812 52.9876 29.4468 55.9251C29.1656 59.3626 30.5874 63.8157 32.4312 65.5657C33.2437 66.3313 34.2249 66.3469 34.8374 66.3469C36.9937 66.3469 37.9624 64.5657 39.0406 62.4407C40.3687 59.8469 41.5406 56.8313 41.5406 56.8313C41.5406 56.8313 40.0718 64.9876 44.0874 64.9876C45.5562 64.9876 47.0249 63.0969 47.6812 62.1282V62.1438C47.6812 62.1438 47.7124 62.0813 47.7906 61.9563C47.9468 61.7219 48.0249 61.5813 48.0249 61.5813V61.5344C48.6187 60.5188 49.9156 58.1907 51.8687 54.3469C54.3999 49.3782 56.8187 43.1751 56.8187 43.1751C57.0531 44.5376 57.3781 45.8844 57.7874 47.2063C58.2249 48.6907 59.1468 50.3157 59.8812 51.8938C59.2874 52.7063 58.9281 53.1751 58.9281 53.1751C58.9281 53.1876 58.9343 53.1969 58.9437 53.2063C58.4749 53.8313 57.9437 54.5032 57.3968 55.1594C55.3999 57.5344 53.0218 60.2532 52.7093 61.0344C52.3343 61.9563 52.4281 62.6438 53.1468 63.1751C53.6781 63.5813 54.6156 63.6438 55.5999 63.5657C57.3968 63.4407 58.6624 63.0032 59.2718 62.7219C60.3958 62.3192 61.4581 61.7618 62.4281 61.0657C64.3812 59.6282 65.5687 57.5657 65.4593 54.8469C65.3968 53.3469 64.9124 51.8469 64.3187 50.4407C64.4906 50.1907 64.6781 49.9251 64.8499 49.6594C66.8833 46.6255 68.7153 43.4614 70.3343 40.1876C70.5687 41.5501 70.8906 42.8969 71.3031 44.2188C71.6781 45.4844 72.4124 46.8751 73.0843 48.2344C70.1781 50.5938 68.3812 53.3282 67.7593 55.1251C66.6031 58.4532 67.5093 59.9532 69.2124 60.2969C69.9781 60.4532 71.0718 60.0938 71.8843 59.7501C73.0906 59.3469 74.2281 58.7626 75.2562 58.0157C77.2093 56.5782 79.0999 54.5626 78.9718 51.8282C78.9249 50.5938 78.5812 49.3594 78.1281 48.1719C80.5812 47.1407 83.7687 46.5782 87.8312 47.0469C96.5312 48.0626 98.2343 53.5001 97.9062 55.7657C97.5781 58.0313 95.7499 59.2969 95.1406 59.6719C94.5312 60.0469 94.3437 60.1876 94.3906 60.4688C94.4687 60.8751 94.7499 60.8594 95.2656 60.7657C95.9843 60.6407 99.8281 58.9219 100 54.7188C100.25 49.4063 95.1406 43.5626 86.0937 43.6094L86.0874 43.6126ZM19.0281 66.2219C16.1531 69.3626 12.1249 70.5501 10.3906 69.5501C8.53119 68.4688 9.26557 63.8469 12.8093 60.5001C14.9656 58.4688 17.7468 56.5938 19.5906 55.4376C20.0124 55.1876 20.6218 54.8126 21.3718 54.3594C21.4328 54.3204 21.4953 54.2839 21.5593 54.2501C21.6999 54.1563 21.8562 54.0782 22.0124 53.9844C23.3062 58.7344 22.0593 62.9219 19.0281 66.2188V66.2219ZM40.0218 51.9407C39.0218 54.3938 36.9156 60.6438 35.6312 60.3157C34.5374 60.0344 33.8656 55.2688 35.4124 50.5813C36.1937 48.2219 37.8499 45.4094 38.8343 44.3157C40.4124 42.5501 42.1468 41.9876 42.5531 42.6907C43.0999 43.6126 40.6468 50.4094 40.0218 51.9407ZM57.3656 60.2219C56.9437 60.4407 56.5531 60.5813 56.3656 60.4719C56.2249 60.3938 56.5374 60.0969 56.5374 60.0969C56.5374 60.0969 58.7093 57.7688 59.5687 56.7063C60.0687 56.0813 60.6468 55.3469 61.2718 54.5344C61.2718 54.6126 61.2874 54.6907 61.2874 54.7844C61.2687 57.5813 58.5812 59.4719 57.3624 60.2219H57.3656ZM70.7406 57.1751C70.4281 56.9563 70.4749 56.2219 71.5218 53.9407C71.9281 53.0501 72.8656 51.5501 74.4906 50.1126C74.6749 50.6563 74.7749 51.2251 74.7874 51.8001C74.7718 55.3157 72.2562 56.6282 70.7406 57.1751Z"
              fill="white" fill-opacity="0.5"/>
    </g>

    <g id="typescript">
        <path d="M5 25V45H45V5H5V25ZM37.235 23.4067C38.2517 23.66 39.025 24.1117 39.7367 24.8483C40.105 25.2417 40.6517 25.9583 40.695 26.1317C40.7083 26.1817 38.9683 27.3483 37.915 28.0033C37.8767 28.0283 37.7233 27.8633 37.5533 27.61C37.0367 26.86 36.4983 26.5367 35.6733 26.48C34.46 26.3967 33.68 27.0317 33.6867 28.0917C33.6756 28.3523 33.7343 28.6112 33.8567 28.8417C34.1233 29.3933 34.62 29.725 36.1733 30.3967C39.0383 31.63 40.2633 32.4417 41.025 33.5967C41.875 34.885 42.0667 36.9433 41.4883 38.4733C40.855 40.1367 39.28 41.2667 37.0633 41.64C36.3783 41.7617 34.7533 41.7433 34.0167 41.61C32.41 41.3233 30.8867 40.53 29.9467 39.4883C29.5783 39.0833 28.86 38.0217 28.905 37.9467C28.9233 37.92 29.0883 37.8183 29.2717 37.7117C29.4517 37.61 30.1233 37.2217 30.7583 36.8533L31.9083 36.1867L32.15 36.5433C32.4867 37.0567 33.2217 37.7617 33.6667 37.9967C34.9433 38.67 36.695 38.575 37.5583 37.8C37.7319 37.6538 37.8694 37.4693 37.9599 37.2612C38.0504 37.053 38.0915 36.8267 38.08 36.6C38.08 36.1367 38.0217 35.9333 37.78 35.5833C37.47 35.14 36.835 34.7667 35.0317 33.9833C32.9683 33.095 32.08 32.5433 31.2667 31.6667C30.759 31.0881 30.3841 30.4055 30.1683 29.6667C30.0167 29.1017 29.9783 27.685 30.0983 27.115C30.5233 25.12 32.0283 23.7317 34.2 23.3183C34.905 23.185 36.5433 23.235 37.235 23.4067ZM27.845 25.0767L27.8583 26.715H22.65V41.5083H18.9667V26.715H13.7633V25.1083C13.7633 24.2183 13.7817 23.475 13.8067 23.4583C13.8267 23.4317 16.995 23.4183 20.835 23.425L27.8267 23.445L27.845 25.0767Z"
              fill="#7572D5"/>
    </g>

    <g id="typescript2">
        <path fill-rule="evenodd" clip-rule="evenodd"
              d="M0 0H15V15H0V0ZM10 6C8.89543 6 8 6.89543 8 8C8 9.10457 8.89543 10 10 10H11C11.5523 10 12 10.4477 12 11C12 11.5523 11.5523 12 11 12H10C9.44772 12 9 11.5523 9 11H8C8 12.1046 8.89543 13 10 13H11C12.1046 13 13 12.1046 13 11C13 9.89543 12.1046 9 11 9H10C9.44772 9 9 8.55228 9 8C9 7.44772 9.44772 7 10 7H11.1667C11.6269 7 12 7.3731 12 7.83333V8H13V7.83333C13 6.82081 12.1792 6 11.1667 6H10ZM3 6H8V7H6V13H5V7H3V6Z"
              fill="#000000"/>
    </g>

    <g id="html5">
        <path d="M0.179832 0.375L6.62514 73.2852L36.0001 81.625L65.258 73.2852L71.8302 0.375H0.179832ZM58.2853 17.6699L57.8166 22.2793L57.6505 24.1836H23.3341L24.1349 33.3828H56.8595L56.5373 35.7559L54.4669 59.4082L54.3009 60.9902L36.0392 66.0293V66.0586H35.922L35.8927 66.0684V66.0586H35.883L17.465 60.9805L16.3517 46.8594H25.2482L25.883 54.0078L35.883 56.7129H35.922L45.883 54.0176L46.9962 42.4355H35.8927V42.4258H15.883L13.6564 17.6699L13.4904 15.2969H58.4415L58.2853 17.6699Z"
              fill="white" fill-opacity="0.5" transform="translate(10 10)"/>
    </g>

    <!-- details -->

    <g id="envelope">
        <path d="M17.125 0.125H0.875C0.529297 0.125 0.25 0.404297 0.25 0.75V13.25C0.25 13.5957 0.529297 13.875 0.875 13.875H17.125C17.4707 13.875 17.75 13.5957 17.75 13.25V0.75C17.75 0.404297 17.4707 0.125 17.125 0.125ZM15.5469 2.25195L9.38477 7.04688C9.23242 7.16602 9.01953 7.16602 8.86719 7.04688L2.70312 2.25195C2.67989 2.23402 2.66285 2.20927 2.65438 2.18116C2.64592 2.15306 2.64647 2.12301 2.65594 2.09523C2.66542 2.06745 2.68335 2.04333 2.70722 2.02625C2.73109 2.00918 2.75971 2 2.78906 2H15.4609C15.4903 2 15.5189 2.00918 15.5428 2.02625C15.5667 2.04333 15.5846 2.06745 15.5941 2.09523C15.6035 2.12301 15.6041 2.15306 15.5956 2.18116C15.5872 2.20927 15.5701 2.23402 15.5469 2.25195Z"
              fill="white"/>
    </g>

    <g id="download">
        <path d="M10 12.5L13.3333 9.16667M10 12.5V2.5V12.5ZM10 12.5L6.66667 9.16667L10 12.5Z" stroke="white"
              stroke-width="2" stroke-linecap="round" stroke-linejoin="round"/>
        <path d="M1.66667 14.1667L2.18417 16.2376C2.2743 16.5981 2.48236 16.9182 2.77528 17.147C3.0682 17.3757 3.42918 17.5 3.80084 17.5001H16.1992C16.5708 17.5 16.9318 17.3757 17.2247 17.147C17.5177 16.9182 17.7257 16.5981 17.8158 16.2376L18.3333 14.1667"
              stroke="white" stroke-width="2" stroke-linecap="round" stroke-linejoin="round"/>
    </g>

    <!-- logo -->

    <g id="logo">
        <g>
            <path d="M15.284,5.535c0-1.727,0.347-3.126,0.347-3.126s0.347,1.399,0.347,3.126c0,0.366-0.018,0.712-0.043,1.038
			c0.476-0.548,1.344-1.735,1.344-3.122C17.279,1.545,15.631,0,15.631,0s-1.647,1.545-1.647,3.451c0,1.386,0.868,2.573,1.342,3.122
			C15.302,6.247,15.284,5.901,15.284,5.535z"/>
            <path d="M15.979,25.727c0,1.728-0.347,3.127-0.347,3.127s-0.347-1.399-0.347-3.127c0-0.365,0.017-0.712,0.042-1.037
			c-0.475,0.547-1.342,1.734-1.342,3.121c0,1.906,1.647,3.451,1.647,3.451s1.648-1.545,1.648-3.451c0-1.386-0.869-2.572-1.344-3.121
			C15.961,25.015,15.979,25.361,15.979,25.727z"/>
            <path d="M10.935,7.883c-0.116-0.171-0.235-0.355-0.352-0.557c-0.547-0.947-0.799-1.824-0.799-1.824s0.633,0.658,1.181,1.604
			c0.115,0.201,0.215,0.396,0.305,0.583c0.087-0.452,0.187-1.378-0.251-2.138c-0.605-1.046-1.998-1.372-1.998-1.372
			s-0.415,1.37,0.188,2.415C9.648,7.356,10.501,7.732,10.935,7.883z"/>
            <path d="M20.328,23.38c0.117,0.171,0.234,0.354,0.352,0.558c0.547,0.946,0.801,1.823,0.801,1.823s-0.637-0.657-1.182-1.604
			c-0.117-0.201-0.217-0.396-0.307-0.584c-0.086,0.453-0.186,1.379,0.254,2.138c0.604,1.046,1.998,1.372,1.998,1.372
			s0.414-1.37-0.191-2.415C21.613,23.906,20.762,23.529,20.328,23.38z"/>
            <path d="M6.572,15.438c-0.348-0.301-1.101-0.85-1.978-0.851c-1.208,0-2.187,1.043-2.187,1.043s0.979,1.044,2.186,1.044
			c0.879,0,1.631-0.549,1.979-0.85c-0.207,0.015-0.426,0.025-0.658,0.025c-1.094,0-1.98-0.22-1.98-0.22s0.887-0.22,1.98-0.22
			C6.147,15.411,6.365,15.422,6.572,15.438z"/>
            <path d="M24.689,15.824c0.348,0.301,1.1,0.85,1.977,0.85c1.209,0,2.188-1.043,2.188-1.043s-0.979-1.043-2.188-1.043
			c-0.877,0-1.629,0.549-1.977,0.85c0.207-0.016,0.426-0.025,0.656-0.025c1.096,0,1.982,0.22,1.982,0.22s-0.887,0.222-1.982,0.22
			C25.115,15.851,24.896,15.84,24.689,15.824z"/>
            <path d="M10.963,24.154c-0.546,0.946-1.181,1.604-1.181,1.604s0.253-0.877,0.799-1.825c0.118-0.2,0.237-0.385,0.354-0.556
			c-0.435,0.15-1.287,0.527-1.727,1.288c-0.604,1.046-0.19,2.415-0.19,2.415s1.394-0.326,1.998-1.37
			c0.439-0.761,0.339-1.688,0.253-2.14C11.18,23.758,11.08,23.953,10.963,24.154z"/>
            <path d="M20.299,7.107c0.547-0.947,1.182-1.606,1.182-1.606S21.229,6.38,20.68,7.327c-0.113,0.201-0.234,0.385-0.352,0.556
			c0.436-0.15,1.287-0.527,1.725-1.287c0.605-1.045,0.191-2.416,0.191-2.416s-1.395,0.327-1.998,1.372
			c-0.439,0.761-0.34,1.686-0.252,2.138C20.084,7.502,20.184,7.307,20.299,7.107z"/>
            <path d="M5.905,8.114C4.256,7.161,2.093,7.815,2.093,7.815s0.515,2.2,2.165,3.153c1.202,0.693,2.663,0.535,3.375,0.398
			c-0.295-0.142-0.604-0.3-0.92-0.482C5.217,10.02,4.179,9.02,4.179,9.02s1.386,0.399,2.881,1.263
			c0.316,0.183,0.607,0.372,0.877,0.556C7.701,10.152,7.108,8.807,5.905,8.114z"/>
            <path d="M27.004,20.295c-1.203-0.693-2.662-0.536-3.375-0.398c0.293,0.143,0.604,0.299,0.918,0.482
			c1.496,0.863,2.535,1.863,2.535,1.863s-1.385-0.398-2.881-1.262c-0.316-0.183-0.607-0.371-0.877-0.556
			c0.236,0.687,0.832,2.03,2.033,2.724c1.65,0.952,3.811,0.299,3.811,0.299S28.652,21.247,27.004,20.295z"/>
            <path d="M4.179,22.242c0,0,1.039-1.002,2.534-1.865c0.317-0.182,0.625-0.339,0.921-0.482c-0.712-0.137-2.175-0.295-3.375,0.399
			c-1.651,0.952-2.166,3.151-2.166,3.151s2.162,0.653,3.812-0.299c1.202-0.693,1.796-2.039,2.033-2.724
			c-0.271,0.185-0.561,0.372-0.876,0.556C5.565,21.842,4.179,22.242,4.179,22.242z"/>
            <path d="M27.082,9.019c0,0-1.039,1-2.533,1.864c-0.316,0.183-0.625,0.341-0.92,0.482c0.713,0.138,2.174,0.295,3.373-0.398
			c1.652-0.954,2.166-3.152,2.166-3.152s-2.16-0.653-3.811,0.299c-1.203,0.694-1.795,2.038-2.033,2.723
			c0.27-0.183,0.561-0.372,0.877-0.554C25.697,9.419,27.082,9.019,27.082,9.019z"/>
            <path d="M15.631,14.893c0,0-4.119-3.736-6.75-3.409c5.057,2.655,6.75,12.456,6.75,12.456s0.497-8.806,6.75-12.456
			C19.039,10.873,15.631,14.893,15.631,14.893z"/>
            <circle cx="15.631" cy="11.421" r="1.693"/>
        </g>
    </g>

    <!-- social media-->
    <g id="githublink">
        <path fill-rule="evenodd" clip-rule="evenodd"
              d="M10 0C4.475 0 0 4.475 0 10C0 14.425 2.8625 18.1625 6.8375 19.4875C7.3375 19.575 7.525 19.275 7.525 19.0125C7.525 18.775 7.5125 17.9875 7.5125 17.15C5 17.6125 4.35 16.5375 4.15 15.975C4.0375 15.6875 3.55 14.8 3.125 14.5625C2.775 14.375 2.275 13.9125 3.1125 13.9C3.9 13.8875 4.4625 14.625 4.65 14.925C5.55 16.4375 6.9875 16.0125 7.5625 15.75C7.65 15.1 7.9125 14.6625 8.2 14.4125C5.975 14.1625 3.65 13.3 3.65 9.475C3.65 8.3875 4.0375 7.4875 4.675 6.7875C4.575 6.5375 4.225 5.5125 4.775 4.1375C4.775 4.1375 5.6125 3.875 7.525 5.1625C8.325 4.9375 9.175 4.825 10.025 4.825C10.875 4.825 11.725 4.9375 12.525 5.1625C14.4375 3.8625 15.275 4.1375 15.275 4.1375C15.825 5.5125 15.475 6.5375 15.375 6.7875C16.0125 7.4875 16.4 8.375 16.4 9.475C16.4 13.3125 14.0625 14.1625 11.8375 14.4125C12.2 14.725 12.5125 15.325 12.5125 16.2625C12.5125 17.6 12.5 18.675 12.5 19.0125C12.5 19.275 12.6875 19.5875 13.1875 19.4875C15.1726 18.8173 16.8976 17.5414 18.1197 15.8395C19.3418 14.1375 19.9994 12.0952 20 10C20 4.475 15.525 0 10 0Z"
              fill="currentColor"/>
    </g>

    <g id="github">
        <path fill-rule="evenodd" clip-rule="evenodd"
              d="M12.5 0C5.59375 0 0 5.59375 0 12.5C0 18.0312 3.57812 22.7031 8.54688 24.3594C9.17188 24.4688 9.40625 24.0938 9.40625 23.7656C9.40625 23.4688 9.39062 22.4844 9.39062 21.4375C6.25 22.0156 5.4375 20.6719 5.1875 19.9688C5.04688 19.6094 4.4375 18.5 3.90625 18.2031C3.46875 17.9688 2.84375 17.3906 3.89062 17.375C4.875 17.3594 5.57812 18.2812 5.8125 18.6562C6.9375 20.5469 8.73437 20.0156 9.45312 19.6875C9.5625 18.875 9.89062 18.3281 10.25 18.0156C7.46875 17.7031 4.5625 16.625 4.5625 11.8437C4.5625 10.4844 5.04688 9.35938 5.84375 8.48438C5.71875 8.17188 5.28125 6.89062 5.96875 5.17188C5.96875 5.17188 7.01562 4.84375 9.40625 6.45312C10.4062 6.17188 11.4687 6.03125 12.5312 6.03125C13.5937 6.03125 14.6562 6.17188 15.6562 6.45312C18.0469 4.82812 19.0938 5.17188 19.0938 5.17188C19.7812 6.89062 19.3438 8.17188 19.2188 8.48438C20.0156 9.35938 20.5 10.4687 20.5 11.8437C20.5 16.6406 17.5781 17.7031 14.7969 18.0156C15.25 18.4062 15.6406 19.1562 15.6406 20.3281C15.6406 22 15.625 23.3438 15.625 23.7656C15.625 24.0938 15.8594 24.4844 16.4844 24.3594C18.9658 23.5216 21.1221 21.9268 22.6496 19.7993C24.1772 17.6719 24.9993 15.119 25 12.5C25 5.59375 19.4062 0 12.5 0Z"
              fill="currentColor"/>
    </g>

    <g id="linkedin">
        <path fill-rule="evenodd" clip-rule="evenodd"
              d="M0.041672 1.95624C0.041672 1.44846 0.243386 0.961482 0.602441 0.602428C0.961495 0.243373 1.44848 0.041659 1.95626 0.041659H21.0417C21.2933 0.0412481 21.5426 0.0904746 21.7752 0.18652C22.0077 0.282566 22.2191 0.423544 22.3971 0.601384C22.5752 0.779224 22.7164 0.990434 22.8127 1.22292C22.909 1.45541 22.9585 1.7046 22.9583 1.95624V21.0417C22.9586 21.2934 22.9093 21.5426 22.8131 21.7752C22.7169 22.0078 22.5759 22.2192 22.3979 22.3972C22.22 22.5752 22.0087 22.7164 21.7762 22.8127C21.5437 22.909 21.2944 22.9585 21.0427 22.9583H1.95626C1.70474 22.9583 1.45569 22.9088 1.22334 22.8125C0.99098 22.7162 0.779871 22.5751 0.602072 22.3972C0.424273 22.2193 0.283268 22.0081 0.187112 21.7757C0.0909564 21.5433 0.0415352 21.2942 0.041672 21.0427V1.95624ZM9.11251 8.77916H12.2156V10.3375C12.6635 9.44166 13.8094 8.63541 15.5313 8.63541C18.8323 8.63541 19.6146 10.4198 19.6146 13.6937V19.7583H16.274V14.4396C16.274 12.575 15.826 11.5229 14.6885 11.5229C13.1104 11.5229 12.4542 12.6573 12.4542 14.4396V19.7583H9.11251V8.77916ZM3.38334 19.6156H6.72501V8.63541H3.38334V19.6146V19.6156ZM7.20313 5.05416C7.20943 5.34028 7.15852 5.62477 7.05338 5.89095C6.94824 6.15712 6.791 6.39961 6.59087 6.60419C6.39075 6.80877 6.15178 6.97132 5.88798 7.08229C5.62418 7.19326 5.34088 7.25043 5.05469 7.25043C4.76851 7.25043 4.4852 7.19326 4.22141 7.08229C3.95761 6.97132 3.71864 6.80877 3.51851 6.60419C3.31839 6.39961 3.16114 6.15712 3.05601 5.89095C2.95087 5.62477 2.89996 5.34028 2.90626 5.05416C2.91862 4.49255 3.15041 3.95811 3.55197 3.56529C3.95353 3.17247 4.49295 2.95251 5.05469 2.95251C5.61644 2.95251 6.15585 3.17247 6.55742 3.56529C6.95898 3.95811 7.19076 4.49255 7.20313 5.05416Z"
              fill="currentColor"/>
    </g>

    <g id="linkedinColorful">
        <path d="M5.80637 7.88635H2.53296V18.3626H5.80637V7.88635Z" fill="currentColor"/>
        <path d="M4.10079 2.94019C2.89376 2.94019 2.10001 3.72082 2.10001 4.75729C2.10001 5.77408 2.86752 6.57439 4.05487 6.57439H4.08111C5.31437 6.57439 6.08189 5.76752 6.07533 4.75729C6.04909 3.72082 5.30781 2.94019 4.10079 2.94019Z"
              fill="currentColor"/>
        <path d="M14.7476 7.78796C12.8714 7.78796 11.6972 8.81131 11.4807 9.53291V7.88636H7.8006C7.84652 8.75883 7.8006 18.3626 7.8006 18.3626H11.4807V12.7014C11.4807 12.3799 11.4676 12.065 11.5594 11.842C11.8087 11.2123 12.3532 10.5563 13.3306 10.5563C14.6098 10.5563 15.1871 11.5271 15.1871 12.9441V18.3626H18.9V12.5374C18.9 9.29675 17.0764 7.78796 14.7476 7.78796Z"
              fill="currentColor"/>
    </g>

    <g id="telegram">
        <path transform="scale(1.5) translateY(3px)"
              d="M18.9057 4.76449L16.3705 16.7208C16.1791 17.5644 15.6804 17.7745 14.9717 17.3772L11.1085 14.5305L9.24472 16.3235C9.0383 16.5299 8.86608 16.7022 8.46824 16.7022L8.74607 12.7681L15.9054 6.29885C16.2169 6.02162 15.8376 5.86741 15.4218 6.14524L6.57084 11.7186L2.76043 10.5257C1.93174 10.2671 1.91674 9.69701 2.93325 9.29917L17.837 3.55716C18.5271 3.29854 19.1308 3.71018 18.9057 4.76449Z"
              fill="currentColor"/>
    </g>


</svg>
