<svg xmlns="http://www.w3.org/2000/svg" viewBox="0 0 64 64" width="64" height="64">
    <path fill="#764ABC" d="M32 0C14.326 0 0 14.326 0 32s14.326 32 32 32 32-14.326 32-32S49.674 0 32 0zm0 60C16.536 60 4 47.464 4 32S16.536 4 32 4s28 12.536 28 28-12.536 28-28 28z"/>
    <path fill="#764ABC" d="M43.207 21.293l-8.585 8.586 8.585 8.585a1 1 0 0 1-1.414 1.414l-8.585-8.586-8.585 8.586a1 1 0 0 1-1.414-1.414l8.585-8.586-8.585-8.586a1 1 0 0 1 1.414-1.414l8.585 8.586 8.585-8.586a1 1 0 0 1 1.414 1.414z"/>
</svg>

