<svg width="100" height="76" viewBox="0 0 100 76" fill="none" xmlns="http://www.w3.org/2000/svg">
<path d="M47.1624 57.2063C47.0687 57.3751 47.1156 57.3001 47.1624 57.2063V57.2063ZM86.0874 43.6126C82.9437 43.6126 79.8437 44.3313 77.0249 45.7219C76.1031 43.8626 75.1499 42.2376 74.9937 41.0188C74.8062 39.5969 74.6031 38.7532 74.8218 37.0657C75.0406 35.3782 76.0249 32.9876 76.0093 32.8157C75.9937 32.6438 75.7906 31.7844 73.7749 31.7688C71.7593 31.7532 70.0249 32.1594 69.8218 32.6907C69.4652 33.6613 69.1882 34.6594 68.9937 35.6751C68.6343 37.5032 64.9656 44.0344 62.8874 47.4407C62.1999 46.1126 61.6218 44.9407 61.4968 44.0032C61.3093 42.5813 61.1062 41.7376 61.3249 40.0501C61.5437 38.3626 62.5281 35.9719 62.5124 35.8001C62.4968 35.6282 62.2937 34.7688 60.2812 34.7532C58.2687 34.7376 56.5312 35.1438 56.3281 35.6751C56.1249 36.2063 55.9062 37.4563 55.4999 38.6594C55.0937 39.8626 50.2031 50.7376 48.9249 53.5657C48.2687 55.0032 47.7062 56.1594 47.2999 56.9407C47.2374 57.0657 47.1906 57.1438 47.1593 57.2063C47.2062 57.1282 47.2374 57.0501 47.2374 57.0813C46.8937 57.7532 46.6906 58.1282 46.6906 58.1282V58.1438C46.4249 58.6438 46.1281 59.0969 45.9874 59.0969C45.8937 59.0969 45.6906 57.7844 46.0343 55.9876C46.7687 52.2063 48.5031 46.3313 48.4874 46.1282C48.4718 46.0188 48.8156 45.0032 47.3468 44.4563C45.9249 43.9407 45.4093 44.8001 45.2843 44.8001C45.1593 44.8001 45.0656 45.1126 45.0656 45.1126C45.0656 45.1126 46.6437 38.4876 42.0343 38.4876C39.1593 38.4876 35.1593 41.6438 33.1937 44.5032C31.9593 45.1751 29.2874 46.6282 26.4749 48.1751L23.2406 49.9563C23.1624 49.8782 23.0999 49.8001 23.0218 49.7219C17.4281 43.7532 7.10307 39.5344 7.54057 31.5188C7.69682 28.5969 8.71244 20.9251 27.3968 11.6126C42.7093 3.98757 54.9499 6.08132 57.0593 10.7376C60.0906 17.3782 50.5124 29.7376 34.6124 31.5188C28.5499 32.1907 25.3656 29.8469 24.5687 28.9719C23.7406 28.0501 23.6156 28.0032 23.3031 28.1751C22.7874 28.4563 23.1156 29.2688 23.3031 29.7532C23.7718 30.9876 25.7249 33.1751 29.0531 34.2688C31.9749 35.2219 39.0812 35.7532 47.6718 32.4251C57.3249 28.7063 64.8406 18.3469 62.6343 9.67507C60.3906 0.862569 45.7781 -2.02806 31.9624 2.87819C23.7281 5.80007 14.8249 10.3938 8.42182 16.3782C0.81244 23.5032 -0.403185 29.7063 0.0968153 32.3001C1.87807 41.5032 14.5624 47.5032 19.6374 51.9407L18.9343 52.3313C16.3874 53.5969 6.71869 58.6594 4.29682 64.0032C1.56244 70.0657 4.74994 74.4094 6.84057 75.0032C13.3718 76.8157 20.0562 73.5501 23.6499 68.1907C27.2437 62.8313 26.8062 55.8313 25.1499 52.6438C25.1343 52.5969 25.1031 52.5657 25.0874 52.5188C26.9624 51.4083 28.8532 50.3248 30.7593 49.2688C30.1343 50.9563 29.6812 52.9876 29.4468 55.9251C29.1656 59.3626 30.5874 63.8157 32.4312 65.5657C33.2437 66.3313 34.2249 66.3469 34.8374 66.3469C36.9937 66.3469 37.9624 64.5657 39.0406 62.4407C40.3687 59.8469 41.5406 56.8313 41.5406 56.8313C41.5406 56.8313 40.0718 64.9876 44.0874 64.9876C45.5562 64.9876 47.0249 63.0969 47.6812 62.1282V62.1438C47.6812 62.1438 47.7124 62.0813 47.7906 61.9563C47.9468 61.7219 48.0249 61.5813 48.0249 61.5813V61.5344C48.6187 60.5188 49.9156 58.1907 51.8687 54.3469C54.3999 49.3782 56.8187 43.1751 56.8187 43.1751C57.0531 44.5376 57.3781 45.8844 57.7874 47.2063C58.2249 48.6907 59.1468 50.3157 59.8812 51.8938C59.2874 52.7063 58.9281 53.1751 58.9281 53.1751C58.9281 53.1876 58.9343 53.1969 58.9437 53.2063C58.4749 53.8313 57.9437 54.5032 57.3968 55.1594C55.3999 57.5344 53.0218 60.2532 52.7093 61.0344C52.3343 61.9563 52.4281 62.6438 53.1468 63.1751C53.6781 63.5813 54.6156 63.6438 55.5999 63.5657C57.3968 63.4407 58.6624 63.0032 59.2718 62.7219C60.3958 62.3192 61.4581 61.7618 62.4281 61.0657C64.3812 59.6282 65.5687 57.5657 65.4593 54.8469C65.3968 53.3469 64.9124 51.8469 64.3187 50.4407C64.4906 50.1907 64.6781 49.9251 64.8499 49.6594C66.8833 46.6255 68.7153 43.4614 70.3343 40.1876C70.5687 41.5501 70.8906 42.8969 71.3031 44.2188C71.6781 45.4844 72.4124 46.8751 73.0843 48.2344C70.1781 50.5938 68.3812 53.3282 67.7593 55.1251C66.6031 58.4532 67.5093 59.9532 69.2124 60.2969C69.9781 60.4532 71.0718 60.0938 71.8843 59.7501C73.0906 59.3469 74.2281 58.7626 75.2562 58.0157C77.2093 56.5782 79.0999 54.5626 78.9718 51.8282C78.9249 50.5938 78.5812 49.3594 78.1281 48.1719C80.5812 47.1407 83.7687 46.5782 87.8312 47.0469C96.5312 48.0626 98.2343 53.5001 97.9062 55.7657C97.5781 58.0313 95.7499 59.2969 95.1406 59.6719C94.5312 60.0469 94.3437 60.1876 94.3906 60.4688C94.4687 60.8751 94.7499 60.8594 95.2656 60.7657C95.9843 60.6407 99.8281 58.9219 100 54.7188C100.25 49.4063 95.1406 43.5626 86.0937 43.6094L86.0874 43.6126ZM19.0281 66.2219C16.1531 69.3626 12.1249 70.5501 10.3906 69.5501C8.53119 68.4688 9.26557 63.8469 12.8093 60.5001C14.9656 58.4688 17.7468 56.5938 19.5906 55.4376C20.0124 55.1876 20.6218 54.8126 21.3718 54.3594C21.4328 54.3204 21.4953 54.2839 21.5593 54.2501C21.6999 54.1563 21.8562 54.0782 22.0124 53.9844C23.3062 58.7344 22.0593 62.9219 19.0281 66.2188V66.2219ZM40.0218 51.9407C39.0218 54.3938 36.9156 60.6438 35.6312 60.3157C34.5374 60.0344 33.8656 55.2688 35.4124 50.5813C36.1937 48.2219 37.8499 45.4094 38.8343 44.3157C40.4124 42.5501 42.1468 41.9876 42.5531 42.6907C43.0999 43.6126 40.6468 50.4094 40.0218 51.9407ZM57.3656 60.2219C56.9437 60.4407 56.5531 60.5813 56.3656 60.4719C56.2249 60.3938 56.5374 60.0969 56.5374 60.0969C56.5374 60.0969 58.7093 57.7688 59.5687 56.7063C60.0687 56.0813 60.6468 55.3469 61.2718 54.5344C61.2718 54.6126 61.2874 54.6907 61.2874 54.7844C61.2687 57.5813 58.5812 59.4719 57.3624 60.2219H57.3656ZM70.7406 57.1751C70.4281 56.9563 70.4749 56.2219 71.5218 53.9407C71.9281 53.0501 72.8656 51.5501 74.4906 50.1126C74.6749 50.6563 74.7749 51.2251 74.7874 51.8001C74.7718 55.3157 72.2562 56.6282 70.7406 57.1751Z" fill="white" fill-opacity="0.5"/>
</svg>
